<mxfile host="app.diagrams.net" modified="2022-08-01T17:54:09.572Z" agent="5.0 (Windows NT 10.0; Win64; x64) AppleWebKit/537.36 (KHTML, like Gecko) Chrome/103.0.0.0 Safari/537.36" etag="aSE82WjOjMfo8cHn37Dx" version="20.2.2" type="github">
  <diagram name="Page-1" id="c7558073-3199-34d8-9f00-42111426c3f3">
    <mxGraphModel dx="2722" dy="2217" grid="1" gridSize="10" guides="1" tooltips="1" connect="1" arrows="1" fold="1" page="1" pageScale="1" pageWidth="826" pageHeight="1169" background="none" math="0" shadow="0">
      <root>
        <mxCell id="0" />
        <mxCell id="1" parent="0" />
        <mxCell id="-ACH_WrPkoXrgMng60kT-121" value="" style="edgeStyle=orthogonalEdgeStyle;rounded=0;orthogonalLoop=1;jettySize=auto;html=1;fontFamily=Comic Sans MS;fontSize=14;" edge="1" parent="1" source="-ACH_WrPkoXrgMng60kT-115">
          <mxGeometry relative="1" as="geometry">
            <mxPoint x="380" y="-510" as="targetPoint" />
          </mxGeometry>
        </mxCell>
        <mxCell id="-ACH_WrPkoXrgMng60kT-115" value="&lt;font style=&quot;font-size: 14px;&quot; face=&quot;Comic Sans MS&quot;&gt;&lt;b&gt;INICIO&amp;nbsp;&lt;/b&gt;&lt;/font&gt;" style="ellipse;whiteSpace=wrap;html=1;fillColor=#d5e8d4;strokeColor=#82b366;" vertex="1" parent="1">
          <mxGeometry x="320" y="-680" width="120" height="80" as="geometry" />
        </mxCell>
        <mxCell id="-ACH_WrPkoXrgMng60kT-125" value="" style="edgeStyle=orthogonalEdgeStyle;rounded=0;orthogonalLoop=1;jettySize=auto;html=1;fontFamily=Comic Sans MS;fontSize=14;" edge="1" parent="1" target="-ACH_WrPkoXrgMng60kT-124">
          <mxGeometry relative="1" as="geometry">
            <mxPoint x="380" y="-450" as="sourcePoint" />
          </mxGeometry>
        </mxCell>
        <mxCell id="-ACH_WrPkoXrgMng60kT-138" value="" style="edgeStyle=orthogonalEdgeStyle;rounded=0;orthogonalLoop=1;jettySize=auto;html=1;fontFamily=Comic Sans MS;fontSize=14;" edge="1" parent="1" source="-ACH_WrPkoXrgMng60kT-122" target="-ACH_WrPkoXrgMng60kT-136">
          <mxGeometry relative="1" as="geometry" />
        </mxCell>
        <mxCell id="-ACH_WrPkoXrgMng60kT-122" value="SE DATA É VÁLIDA&lt;br&gt;" style="whiteSpace=wrap;html=1;fillColor=#dae8fc;strokeColor=#6c8ebf;" vertex="1" parent="1">
          <mxGeometry x="130" y="-360" width="130" height="60" as="geometry" />
        </mxCell>
        <mxCell id="-ACH_WrPkoXrgMng60kT-126" value="" style="edgeStyle=orthogonalEdgeStyle;rounded=0;orthogonalLoop=1;jettySize=auto;html=1;fontFamily=Comic Sans MS;fontSize=14;" edge="1" parent="1" source="-ACH_WrPkoXrgMng60kT-124" target="-ACH_WrPkoXrgMng60kT-122">
          <mxGeometry relative="1" as="geometry" />
        </mxCell>
        <mxCell id="-ACH_WrPkoXrgMng60kT-128" value="" style="edgeStyle=orthogonalEdgeStyle;rounded=0;orthogonalLoop=1;jettySize=auto;html=1;fontFamily=Comic Sans MS;fontSize=14;" edge="1" parent="1" source="-ACH_WrPkoXrgMng60kT-124" target="-ACH_WrPkoXrgMng60kT-127">
          <mxGeometry relative="1" as="geometry" />
        </mxCell>
        <mxCell id="-ACH_WrPkoXrgMng60kT-124" value="DATA&amp;nbsp;" style="rhombus;whiteSpace=wrap;html=1;fillColor=#ffe6cc;strokeColor=#d79b00;" vertex="1" parent="1">
          <mxGeometry x="340" y="-370" width="80" height="80" as="geometry" />
        </mxCell>
        <mxCell id="-ACH_WrPkoXrgMng60kT-135" value="" style="edgeStyle=orthogonalEdgeStyle;rounded=0;orthogonalLoop=1;jettySize=auto;html=1;fontFamily=Comic Sans MS;fontSize=14;" edge="1" parent="1" source="-ACH_WrPkoXrgMng60kT-127" target="-ACH_WrPkoXrgMng60kT-132">
          <mxGeometry relative="1" as="geometry" />
        </mxCell>
        <mxCell id="-ACH_WrPkoXrgMng60kT-127" value="SE DATA É INVÁLIDA" style="whiteSpace=wrap;html=1;fillColor=#dae8fc;strokeColor=#6c8ebf;" vertex="1" parent="1">
          <mxGeometry x="585" y="-360" width="140" height="60" as="geometry" />
        </mxCell>
        <mxCell id="-ACH_WrPkoXrgMng60kT-131" value="LEITURA: DATA EVENTO" style="shape=manualInput;whiteSpace=wrap;html=1;fontFamily=Comic Sans MS;fontSize=14;fillColor=#e1d5e7;strokeColor=#9673a6;" vertex="1" parent="1">
          <mxGeometry x="286.5" y="-520" width="187" height="80" as="geometry" />
        </mxCell>
        <mxCell id="-ACH_WrPkoXrgMng60kT-169" value="" style="edgeStyle=orthogonalEdgeStyle;rounded=0;orthogonalLoop=1;jettySize=auto;html=1;fontFamily=Comic Sans MS;fontSize=14;entryX=0.5;entryY=0;entryDx=0;entryDy=0;" edge="1" parent="1" source="-ACH_WrPkoXrgMng60kT-132" target="-ACH_WrPkoXrgMng60kT-167">
          <mxGeometry relative="1" as="geometry">
            <mxPoint x="655" y="-30" as="targetPoint" />
          </mxGeometry>
        </mxCell>
        <mxCell id="-ACH_WrPkoXrgMng60kT-132" value="&amp;nbsp; &amp;nbsp; CADASTRO NÃO PERMITIDO DATA EVENTO INVÁLIDO" style="shape=display;whiteSpace=wrap;html=1;fontFamily=Comic Sans MS;fontSize=14;fillColor=#60a917;fontColor=#ffffff;strokeColor=#2D7600;" vertex="1" parent="1">
          <mxGeometry x="540" y="-200" width="230" height="90" as="geometry" />
        </mxCell>
        <mxCell id="-ACH_WrPkoXrgMng60kT-140" value="" style="edgeStyle=orthogonalEdgeStyle;rounded=0;orthogonalLoop=1;jettySize=auto;html=1;fontFamily=Comic Sans MS;fontSize=14;" edge="1" parent="1" source="-ACH_WrPkoXrgMng60kT-136" target="-ACH_WrPkoXrgMng60kT-139">
          <mxGeometry relative="1" as="geometry" />
        </mxCell>
        <mxCell id="-ACH_WrPkoXrgMng60kT-136" value="&lt;br&gt;LEITURA: DATA NASCIMENTO" style="shape=manualInput;whiteSpace=wrap;html=1;fontFamily=Comic Sans MS;fontSize=14;fillColor=#e1d5e7;strokeColor=#9673a6;" vertex="1" parent="1">
          <mxGeometry x="101.5" y="-220" width="187" height="80" as="geometry" />
        </mxCell>
        <mxCell id="-ACH_WrPkoXrgMng60kT-142" value="" style="edgeStyle=orthogonalEdgeStyle;rounded=0;orthogonalLoop=1;jettySize=auto;html=1;fontFamily=Comic Sans MS;fontSize=14;" edge="1" parent="1" source="-ACH_WrPkoXrgMng60kT-139" target="-ACH_WrPkoXrgMng60kT-141">
          <mxGeometry relative="1" as="geometry" />
        </mxCell>
        <mxCell id="-ACH_WrPkoXrgMng60kT-146" value="" style="edgeStyle=orthogonalEdgeStyle;rounded=0;orthogonalLoop=1;jettySize=auto;html=1;fontFamily=Comic Sans MS;fontSize=14;" edge="1" parent="1" source="-ACH_WrPkoXrgMng60kT-139" target="-ACH_WrPkoXrgMng60kT-145">
          <mxGeometry relative="1" as="geometry" />
        </mxCell>
        <mxCell id="-ACH_WrPkoXrgMng60kT-139" value="IDADE" style="rhombus;whiteSpace=wrap;html=1;fontSize=14;fontFamily=Comic Sans MS;fillColor=#ffe6cc;strokeColor=#d79b00;" vertex="1" parent="1">
          <mxGeometry x="155" y="-60" width="80" height="80" as="geometry" />
        </mxCell>
        <mxCell id="-ACH_WrPkoXrgMng60kT-144" value="" style="edgeStyle=orthogonalEdgeStyle;rounded=0;orthogonalLoop=1;jettySize=auto;html=1;fontFamily=Comic Sans MS;fontSize=14;" edge="1" parent="1" source="-ACH_WrPkoXrgMng60kT-141" target="-ACH_WrPkoXrgMng60kT-143">
          <mxGeometry relative="1" as="geometry" />
        </mxCell>
        <mxCell id="-ACH_WrPkoXrgMng60kT-141" value="SE IDADE INVÁLIDA" style="whiteSpace=wrap;html=1;fontSize=14;fontFamily=Comic Sans MS;fillColor=#dae8fc;strokeColor=#6c8ebf;" vertex="1" parent="1">
          <mxGeometry x="135" y="110" width="120" height="60" as="geometry" />
        </mxCell>
        <mxCell id="-ACH_WrPkoXrgMng60kT-176" style="edgeStyle=orthogonalEdgeStyle;rounded=0;orthogonalLoop=1;jettySize=auto;html=1;entryX=0.5;entryY=0;entryDx=0;entryDy=0;fontFamily=Comic Sans MS;fontSize=14;" edge="1" parent="1" source="-ACH_WrPkoXrgMng60kT-143" target="-ACH_WrPkoXrgMng60kT-167">
          <mxGeometry relative="1" as="geometry" />
        </mxCell>
        <mxCell id="-ACH_WrPkoXrgMng60kT-143" value="&amp;nbsp; &amp;nbsp; CADASTRO NÃO PERMITIDO IDADE INVÁLIDA" style="shape=display;whiteSpace=wrap;html=1;fontFamily=Comic Sans MS;fontSize=14;fillColor=#60a917;fontColor=#ffffff;strokeColor=#2D7600;" vertex="1" parent="1">
          <mxGeometry x="80" y="250" width="230" height="90" as="geometry" />
        </mxCell>
        <mxCell id="-ACH_WrPkoXrgMng60kT-148" value="" style="edgeStyle=orthogonalEdgeStyle;rounded=0;orthogonalLoop=1;jettySize=auto;html=1;fontFamily=Comic Sans MS;fontSize=14;" edge="1" parent="1" source="-ACH_WrPkoXrgMng60kT-145" target="-ACH_WrPkoXrgMng60kT-147">
          <mxGeometry relative="1" as="geometry" />
        </mxCell>
        <mxCell id="-ACH_WrPkoXrgMng60kT-145" value="SE IDADE VALIDA" style="whiteSpace=wrap;html=1;fontSize=14;fontFamily=Comic Sans MS;fillColor=#dae8fc;strokeColor=#6c8ebf;" vertex="1" parent="1">
          <mxGeometry x="-60" y="-50" width="120" height="60" as="geometry" />
        </mxCell>
        <mxCell id="-ACH_WrPkoXrgMng60kT-150" value="" style="edgeStyle=orthogonalEdgeStyle;rounded=0;orthogonalLoop=1;jettySize=auto;html=1;fontFamily=Comic Sans MS;fontSize=14;" edge="1" parent="1" source="-ACH_WrPkoXrgMng60kT-147" target="-ACH_WrPkoXrgMng60kT-149">
          <mxGeometry relative="1" as="geometry" />
        </mxCell>
        <mxCell id="-ACH_WrPkoXrgMng60kT-147" value="VOCÊ É PALESTRANTE OU PARTICIPANTE" style="shape=display;whiteSpace=wrap;html=1;fontFamily=Comic Sans MS;fontSize=14;fillColor=#60a917;fontColor=#ffffff;strokeColor=#2D7600;" vertex="1" parent="1">
          <mxGeometry x="-380" y="-65" width="230" height="90" as="geometry" />
        </mxCell>
        <mxCell id="-ACH_WrPkoXrgMng60kT-157" value="" style="edgeStyle=orthogonalEdgeStyle;rounded=0;orthogonalLoop=1;jettySize=auto;html=1;fontFamily=Comic Sans MS;fontSize=14;" edge="1" parent="1" source="-ACH_WrPkoXrgMng60kT-149" target="-ACH_WrPkoXrgMng60kT-154">
          <mxGeometry relative="1" as="geometry" />
        </mxCell>
        <mxCell id="-ACH_WrPkoXrgMng60kT-149" value="&lt;br&gt;&amp;nbsp; &amp;nbsp; &amp;nbsp; &amp;nbsp; &amp;nbsp; LEITURA: &lt;br&gt;&amp;nbsp; &amp;nbsp; &amp;nbsp; &amp;nbsp; &amp;nbsp; &amp;nbsp; 1 - PALESTRANTE&amp;nbsp; &amp;nbsp; &amp;nbsp; &amp;nbsp; &amp;nbsp; &amp;nbsp; &amp;nbsp; 2 - PARTICIPANTE" style="shape=manualInput;whiteSpace=wrap;html=1;fontFamily=Comic Sans MS;fontSize=14;fillColor=#e1d5e7;strokeColor=#9673a6;" vertex="1" parent="1">
          <mxGeometry x="-358.5" y="130" width="187" height="80" as="geometry" />
        </mxCell>
        <mxCell id="-ACH_WrPkoXrgMng60kT-156" value="" style="edgeStyle=orthogonalEdgeStyle;rounded=0;orthogonalLoop=1;jettySize=auto;html=1;fontFamily=Comic Sans MS;fontSize=14;" edge="1" parent="1" source="-ACH_WrPkoXrgMng60kT-154" target="-ACH_WrPkoXrgMng60kT-155">
          <mxGeometry relative="1" as="geometry" />
        </mxCell>
        <mxCell id="-ACH_WrPkoXrgMng60kT-163" value="" style="edgeStyle=orthogonalEdgeStyle;rounded=0;orthogonalLoop=1;jettySize=auto;html=1;fontFamily=Comic Sans MS;fontSize=14;" edge="1" parent="1" source="-ACH_WrPkoXrgMng60kT-154" target="-ACH_WrPkoXrgMng60kT-162">
          <mxGeometry relative="1" as="geometry" />
        </mxCell>
        <mxCell id="-ACH_WrPkoXrgMng60kT-154" value="N. PESSOAS" style="rhombus;whiteSpace=wrap;html=1;fontSize=14;fontFamily=Comic Sans MS;fillColor=#ffe6cc;strokeColor=#d79b00;" vertex="1" parent="1">
          <mxGeometry x="-332.5" y="450" width="135" height="110" as="geometry" />
        </mxCell>
        <mxCell id="-ACH_WrPkoXrgMng60kT-161" value="" style="edgeStyle=orthogonalEdgeStyle;rounded=0;orthogonalLoop=1;jettySize=auto;html=1;fontFamily=Comic Sans MS;fontSize=14;" edge="1" parent="1" source="-ACH_WrPkoXrgMng60kT-155">
          <mxGeometry relative="1" as="geometry">
            <mxPoint x="50" y="790" as="targetPoint" />
          </mxGeometry>
        </mxCell>
        <mxCell id="-ACH_WrPkoXrgMng60kT-155" value="SE NUMERO PESSOAS &amp;lt;= 100" style="whiteSpace=wrap;html=1;fontSize=14;fontFamily=Comic Sans MS;fillColor=#dae8fc;strokeColor=#6c8ebf;" vertex="1" parent="1">
          <mxGeometry x="-325" y="760" width="120" height="60" as="geometry" />
        </mxCell>
        <mxCell id="-ACH_WrPkoXrgMng60kT-175" value="" style="edgeStyle=orthogonalEdgeStyle;rounded=0;orthogonalLoop=1;jettySize=auto;html=1;fontFamily=Comic Sans MS;fontSize=14;" edge="1" parent="1" source="-ACH_WrPkoXrgMng60kT-158" target="-ACH_WrPkoXrgMng60kT-167">
          <mxGeometry relative="1" as="geometry">
            <mxPoint x="441.5" y="790" as="targetPoint" />
          </mxGeometry>
        </mxCell>
        <mxCell id="-ACH_WrPkoXrgMng60kT-158" value="&amp;nbsp; &amp;nbsp; CADASTRO REALIZADO COM SUCESSO" style="shape=display;whiteSpace=wrap;html=1;fontFamily=Comic Sans MS;fontSize=14;fillColor=#60a917;fontColor=#ffffff;strokeColor=#2D7600;" vertex="1" parent="1">
          <mxGeometry x="56.5" y="745" width="230" height="90" as="geometry" />
        </mxCell>
        <mxCell id="-ACH_WrPkoXrgMng60kT-165" value="" style="edgeStyle=orthogonalEdgeStyle;rounded=0;orthogonalLoop=1;jettySize=auto;html=1;fontFamily=Comic Sans MS;fontSize=14;" edge="1" parent="1" source="-ACH_WrPkoXrgMng60kT-162" target="-ACH_WrPkoXrgMng60kT-164">
          <mxGeometry relative="1" as="geometry" />
        </mxCell>
        <mxCell id="-ACH_WrPkoXrgMng60kT-162" value="SE NUMERO PESSOAS &amp;gt; 100" style="whiteSpace=wrap;html=1;fontSize=14;fontFamily=Comic Sans MS;fillColor=#dae8fc;strokeColor=#6c8ebf;" vertex="1" parent="1">
          <mxGeometry x="-120" y="475" width="120" height="60" as="geometry" />
        </mxCell>
        <mxCell id="-ACH_WrPkoXrgMng60kT-171" value="" style="edgeStyle=orthogonalEdgeStyle;rounded=0;orthogonalLoop=1;jettySize=auto;html=1;fontFamily=Comic Sans MS;fontSize=14;entryX=0.005;entryY=0.559;entryDx=0;entryDy=0;entryPerimeter=0;" edge="1" parent="1" source="-ACH_WrPkoXrgMng60kT-164" target="-ACH_WrPkoXrgMng60kT-167">
          <mxGeometry relative="1" as="geometry">
            <mxPoint x="530" y="505" as="targetPoint" />
          </mxGeometry>
        </mxCell>
        <mxCell id="-ACH_WrPkoXrgMng60kT-164" value="&amp;nbsp; &amp;nbsp; &amp;nbsp; &amp;nbsp;CADASTRO NÃO REALIZADO EXCEDE&amp;nbsp; &amp;nbsp; &amp;nbsp; NUMERO DE&amp;nbsp; &amp;nbsp; &amp;nbsp; PARTICIPANTES&amp;nbsp;" style="shape=display;whiteSpace=wrap;html=1;fontFamily=Comic Sans MS;fontSize=14;fillColor=#60a917;fontColor=#ffffff;strokeColor=#2D7600;align=center;" vertex="1" parent="1">
          <mxGeometry x="80" y="460" width="230" height="90" as="geometry" />
        </mxCell>
        <mxCell id="-ACH_WrPkoXrgMng60kT-167" value="&lt;font face=&quot;Comic Sans MS&quot;&gt;&lt;span style=&quot;font-size: 14px;&quot;&gt;&lt;b&gt;FIM&lt;/b&gt;&lt;/span&gt;&lt;/font&gt;" style="ellipse;whiteSpace=wrap;html=1;fillColor=#d5e8d4;strokeColor=#82b366;" vertex="1" parent="1">
          <mxGeometry x="545" y="405" width="220" height="180" as="geometry" />
        </mxCell>
      </root>
    </mxGraphModel>
  </diagram>
</mxfile>
